<svg width="48" height="52" viewBox="0 0 48 52" fill="none" xmlns="http://www.w3.org/2000/svg">
<g clip-path="url(#clip0_20_1024)">
<mask id="mask0_20_1024" style="mask-type:luminance" maskUnits="userSpaceOnUse" x="0" y="0" width="48" height="24">
<path d="M48 0H0V24H48V0Z" fill="white"/>
</mask>
<g mask="url(#mask0_20_1024)">
<mask id="mask1_20_1024" style="mask-type:luminance" maskUnits="userSpaceOnUse" x="0" y="11" width="48" height="12">
<path d="M0 11.9844H47.6406V22.7188H0V11.9844Z" fill="white"/>
</mask>
<g mask="url(#mask1_20_1024)">
<mask id="mask2_20_1024" style="mask-type:luminance" maskUnits="userSpaceOnUse" x="0" y="10" width="48" height="14">
<path d="M48 10.6667H0V24H48V10.6667Z" fill="white"/>
</mask>
<g mask="url(#mask2_20_1024)">
<mask id="mask3_20_1024" style="mask-type:luminance" maskUnits="userSpaceOnUse" x="0" y="11" width="48" height="12">
<path d="M0 11.9844H47.6406V22.7187H0V11.9844Z" fill="white"/>
</mask>
<g mask="url(#mask3_20_1024)">
<path d="M0 11.9844H47.625V22.7187H0V11.9844Z" fill="black"/>
</g>
</g>
</g>
<mask id="mask4_20_1024" style="mask-type:luminance" maskUnits="userSpaceOnUse" x="25" y="0" width="23" height="20">
<path d="M25.3335 0H47.6825V20H25.3335V0Z" fill="white"/>
</mask>
<g mask="url(#mask4_20_1024)">
<mask id="mask5_20_1024" style="mask-type:luminance" maskUnits="userSpaceOnUse" x="25" y="0" width="23" height="19">
<path d="M30.8908 0L47.6408 11.9844L42.7085 18.8802L25.9585 6.89063L30.8908 0Z" fill="white"/>
</mask>
<g mask="url(#mask5_20_1024)">
<mask id="mask6_20_1024" style="mask-type:luminance" maskUnits="userSpaceOnUse" x="25" y="0" width="23" height="20">
<path d="M48.0002 0H25.3335V20H48.0002V0Z" fill="white"/>
</mask>
<g mask="url(#mask6_20_1024)">
<mask id="mask7_20_1024" style="mask-type:luminance" maskUnits="userSpaceOnUse" x="25" y="0" width="23" height="19">
<path d="M25.9219 0H47.6823V18.8802H25.9219V0Z" fill="white"/>
</mask>
<g mask="url(#mask7_20_1024)">
<mask id="mask8_20_1024" style="mask-type:luminance" maskUnits="userSpaceOnUse" x="25" y="0" width="23" height="19">
<path d="M30.8908 0L47.6408 11.9844L42.7085 18.8802L25.9585 6.89063L30.8908 0Z" fill="white"/>
</mask>
<g mask="url(#mask8_20_1024)">
<path d="M30.8908 0L47.6304 11.9792L42.7033 18.875L25.9585 6.89063L30.8908 0Z" fill="black"/>
</g>
</g>
</g>
</g>
</g>
<mask id="mask9_20_1024" style="mask-type:luminance" maskUnits="userSpaceOnUse" x="22" y="0" width="9" height="21">
<path d="M22.4165 0H30.8905V20.4688H22.4165V0Z" fill="white"/>
</mask>
<g mask="url(#mask9_20_1024)">
<mask id="mask10_20_1024" style="mask-type:luminance" maskUnits="userSpaceOnUse" x="21" y="0" width="11" height="22">
<path d="M31.9997 0H21.333V21.3333H31.9997V0Z" fill="white"/>
</mask>
<g mask="url(#mask10_20_1024)">
<mask id="mask11_20_1024" style="mask-type:luminance" maskUnits="userSpaceOnUse" x="22" y="0" width="9" height="21">
<path d="M22.4165 0H30.8905V20.4688H22.4165V0Z" fill="white"/>
</mask>
<g mask="url(#mask11_20_1024)">
<path d="M30.8905 0V20.4583H22.4165V0H30.8905Z" fill="black"/>
</g>
</g>
</g>
<mask id="mask12_20_1024" style="mask-type:luminance" maskUnits="userSpaceOnUse" x="22" y="7" width="12" height="10">
<path d="M22.4116 7.23956H33.146V16.7291H22.4116V7.23956Z" fill="white"/>
</mask>
<g mask="url(#mask12_20_1024)">
<mask id="mask13_20_1024" style="mask-type:luminance" maskUnits="userSpaceOnUse" x="21" y="6" width="13" height="12">
<path d="M33.3335 6.66663H21.3335V17.3333H33.3335V6.66663Z" fill="white"/>
</mask>
<g mask="url(#mask13_20_1024)">
<mask id="mask14_20_1024" style="mask-type:luminance" maskUnits="userSpaceOnUse" x="22" y="7" width="12" height="10">
<path d="M22.4116 7.23956H33.146V16.7291H22.4116V7.23956Z" fill="white"/>
</mask>
<g mask="url(#mask14_20_1024)">
<path d="M33.1462 7.23956V16.7291H22.4326V7.23956H33.1462Z" fill="black"/>
</g>
</g>
</g>
</g>
<mask id="mask15_20_1024" style="mask-type:luminance" maskUnits="userSpaceOnUse" x="0" y="28" width="48" height="24">
<path d="M48 28H0V52H48V28Z" fill="white"/>
</mask>
<g mask="url(#mask15_20_1024)">
<mask id="mask16_20_1024" style="mask-type:luminance" maskUnits="userSpaceOnUse" x="0" y="28" width="48" height="12">
<path d="M0 28.3542H47.625V39.0834H0V28.3542Z" fill="white"/>
</mask>
<g mask="url(#mask16_20_1024)">
<mask id="mask17_20_1024" style="mask-type:luminance" maskUnits="userSpaceOnUse" x="0" y="28" width="48" height="12">
<path d="M48 28H0V40H48V28Z" fill="white"/>
</mask>
<g mask="url(#mask17_20_1024)">
<mask id="mask18_20_1024" style="mask-type:luminance" maskUnits="userSpaceOnUse" x="0" y="28" width="48" height="12">
<path d="M0 28.3542H47.625V39.0834H0V28.3542Z" fill="white"/>
</mask>
<g mask="url(#mask18_20_1024)">
<path d="M47.625 39.0834H0V28.3542H47.625V39.0834Z" fill="black"/>
</g>
</g>
</g>
<mask id="mask19_20_1024" style="mask-type:luminance" maskUnits="userSpaceOnUse" x="0" y="32" width="23" height="20">
<path d="M0 32H22.6667V51.1979H0V32Z" fill="white"/>
</mask>
<g mask="url(#mask19_20_1024)">
<mask id="mask20_20_1024" style="mask-type:luminance" maskUnits="userSpaceOnUse" x="-1" y="32" width="23" height="20">
<path d="M16.7344 51.0677L-0.015625 39.0833L4.91667 32.1927L21.6667 44.1771L16.7344 51.0677Z" fill="white"/>
</mask>
<g mask="url(#mask20_20_1024)">
<mask id="mask21_20_1024" style="mask-type:luminance" maskUnits="userSpaceOnUse" x="0" y="32" width="23" height="20">
<path d="M22.6667 32H0V52H22.6667V32Z" fill="white"/>
</mask>
<g mask="url(#mask21_20_1024)">
<mask id="mask22_20_1024" style="mask-type:luminance" maskUnits="userSpaceOnUse" x="0" y="32" width="22" height="20">
<path d="M0 32H21.7604V51.1979H0V32Z" fill="white"/>
</mask>
<g mask="url(#mask22_20_1024)">
<mask id="mask23_20_1024" style="mask-type:luminance" maskUnits="userSpaceOnUse" x="-1" y="32" width="23" height="20">
<path d="M16.7344 51.0677L-0.015625 39.0833L4.91667 32.1927L21.6667 44.1771L16.7344 51.0677Z" fill="white"/>
</mask>
<g mask="url(#mask23_20_1024)">
<path d="M16.7342 51.0677L-0.00537109 39.0885L4.92171 32.1979L21.6665 44.177L16.7342 51.0677Z" fill="black"/>
</g>
</g>
</g>
</g>
</g>
<mask id="mask24_20_1024" style="mask-type:luminance" maskUnits="userSpaceOnUse" x="16" y="30" width="10" height="22">
<path d="M16.7344 30.599H25.2083V51.0677H16.7344V30.599Z" fill="white"/>
</mask>
<g mask="url(#mask24_20_1024)">
<mask id="mask25_20_1024" style="mask-type:luminance" maskUnits="userSpaceOnUse" x="16" y="29" width="10" height="23">
<path d="M25.3333 29.3334H16V52H25.3333V29.3334Z" fill="white"/>
</mask>
<g mask="url(#mask25_20_1024)">
<mask id="mask26_20_1024" style="mask-type:luminance" maskUnits="userSpaceOnUse" x="16" y="30" width="10" height="22">
<path d="M16.7344 30.599H25.2083V51.0677H16.7344V30.599Z" fill="white"/>
</mask>
<g mask="url(#mask26_20_1024)">
<path d="M16.7344 51.0677V30.6146H25.2083V51.0677H16.7344Z" fill="black"/>
</g>
</g>
</g>
<mask id="mask27_20_1024" style="mask-type:luminance" maskUnits="userSpaceOnUse" x="14" y="34" width="12" height="10">
<path d="M14.479 34.3386H25.2134V43.8334H14.479V34.3386Z" fill="white"/>
</mask>
<g mask="url(#mask27_20_1024)">
<mask id="mask28_20_1024" style="mask-type:luminance" maskUnits="userSpaceOnUse" x="13" y="33" width="13" height="11">
<path d="M25.333 33.3334H13.333V44H25.333V33.3334Z" fill="white"/>
</mask>
<g mask="url(#mask28_20_1024)">
<mask id="mask29_20_1024" style="mask-type:luminance" maskUnits="userSpaceOnUse" x="14" y="34" width="12" height="10">
<path d="M14.479 34.3386H25.2134V43.8334H14.479V34.3386Z" fill="white"/>
</mask>
<g mask="url(#mask29_20_1024)">
<path d="M14.479 43.8334V34.3386H25.1925V43.8334H14.479Z" fill="black"/>
</g>
</g>
</g>
</g>
</g>
<defs>
<clipPath id="clip0_20_1024">
<rect width="48" height="52" fill="white"/>
</clipPath>
</defs>
</svg>
