<svg width="21" height="22" viewBox="0 0 21 22" fill="none" xmlns="http://www.w3.org/2000/svg">
<mask id="mask0_20_2184" style="mask-type:luminance" maskUnits="userSpaceOnUse" x="0" y="0" width="21" height="11">
<path d="M0.145996 0H20.5314V10.6667H0.145996V0Z" fill="white"/>
</mask>
<g mask="url(#mask0_20_2184)">
<mask id="mask1_20_2184" style="mask-type:luminance" maskUnits="userSpaceOnUse" x="0" y="0" width="22" height="11">
<path d="M21.3333 0H0V10.6667H21.3333V0Z" fill="white"/>
</mask>
<g mask="url(#mask1_20_2184)">
<mask id="mask2_20_2184" style="mask-type:luminance" maskUnits="userSpaceOnUse" x="0" y="4" width="20" height="6">
<path d="M0.145996 4.92709H19.7345V9.33854H0.145996V4.92709Z" fill="white"/>
</mask>
<g mask="url(#mask2_20_2184)">
<mask id="mask3_20_2184" style="mask-type:luminance" maskUnits="userSpaceOnUse" x="0" y="4" width="20" height="7">
<path d="M20 4H0V10.6667H20V4Z" fill="white"/>
</mask>
<g mask="url(#mask3_20_2184)">
<mask id="mask4_20_2184" style="mask-type:luminance" maskUnits="userSpaceOnUse" x="0" y="4" width="20" height="6">
<path d="M0.145996 4.92709H19.7345V9.33854H0.145996V4.92709Z" fill="white"/>
</mask>
<g mask="url(#mask4_20_2184)">
<path d="M0.145996 4.92709H19.7293V9.33854H0.145996V4.92709Z" fill="white"/>
</g>
</g>
</g>
<mask id="mask5_20_2184" style="mask-type:luminance" maskUnits="userSpaceOnUse" x="10" y="0" width="11" height="8">
<path d="M10.667 0H20.0003V8H10.667V0Z" fill="white"/>
</mask>
<g mask="url(#mask5_20_2184)">
<mask id="mask6_20_2184" style="mask-type:luminance" maskUnits="userSpaceOnUse" x="10" y="0" width="10" height="8">
<path d="M12.8491 0L19.7345 4.92708L17.7085 7.76042L10.8179 2.83333L12.8491 0Z" fill="white"/>
</mask>
<g mask="url(#mask6_20_2184)">
<mask id="mask7_20_2184" style="mask-type:luminance" maskUnits="userSpaceOnUse" x="10" y="0" width="11" height="8">
<path d="M20.0003 0H10.667V8H20.0003V0Z" fill="white"/>
</mask>
<g mask="url(#mask7_20_2184)">
<mask id="mask8_20_2184" style="mask-type:luminance" maskUnits="userSpaceOnUse" x="10" y="0" width="10" height="8">
<path d="M10.7085 0H20.0002V7.76563H10.7085V0Z" fill="white"/>
</mask>
<g mask="url(#mask8_20_2184)">
<mask id="mask9_20_2184" style="mask-type:luminance" maskUnits="userSpaceOnUse" x="10" y="0" width="10" height="8">
<path d="M12.8491 0L19.7345 4.92708L17.7085 7.76042L10.8179 2.83333L12.8491 0Z" fill="white"/>
</mask>
<g mask="url(#mask9_20_2184)">
<path d="M12.8491 0L19.7293 4.92708L17.7033 7.76042L10.8179 2.83333L12.8491 0Z" fill="white"/>
</g>
</g>
</g>
</g>
</g>
<mask id="mask10_20_2184" style="mask-type:luminance" maskUnits="userSpaceOnUse" x="9" y="0" width="4" height="9">
<path d="M9.36475 0H12.8491V8.41667H9.36475V0Z" fill="white"/>
</mask>
<g mask="url(#mask10_20_2184)">
<mask id="mask11_20_2184" style="mask-type:luminance" maskUnits="userSpaceOnUse" x="9" y="0" width="5" height="10">
<path d="M13.3335 0H9.3335V9.33333H13.3335V0Z" fill="white"/>
</mask>
<g mask="url(#mask11_20_2184)">
<mask id="mask12_20_2184" style="mask-type:luminance" maskUnits="userSpaceOnUse" x="9" y="0" width="4" height="9">
<path d="M9.36475 0H12.8491V8.41667H9.36475V0Z" fill="white"/>
</mask>
<g mask="url(#mask12_20_2184)">
<path d="M12.8491 0V8.41146H9.36475V0H12.8491Z" fill="white"/>
</g>
</g>
</g>
<mask id="mask13_20_2184" style="mask-type:luminance" maskUnits="userSpaceOnUse" x="9" y="2" width="5" height="5">
<path d="M9.36475 2.97396H13.7762V6.88021H9.36475V2.97396Z" fill="white"/>
</mask>
<g mask="url(#mask13_20_2184)">
<mask id="mask14_20_2184" style="mask-type:luminance" maskUnits="userSpaceOnUse" x="9" y="2" width="6" height="6">
<path d="M14.6668 2.66667H9.3335V8.00001H14.6668V2.66667Z" fill="white"/>
</mask>
<g mask="url(#mask14_20_2184)">
<mask id="mask15_20_2184" style="mask-type:luminance" maskUnits="userSpaceOnUse" x="9" y="2" width="5" height="5">
<path d="M9.36475 2.97396H13.7762V6.88021H9.36475V2.97396Z" fill="white"/>
</mask>
<g mask="url(#mask15_20_2184)">
<path d="M13.7764 2.97396V6.88021H9.37012V2.97396H13.7764Z" fill="white"/>
</g>
</g>
</g>
</g>
</g>
<mask id="mask16_20_2184" style="mask-type:luminance" maskUnits="userSpaceOnUse" x="0" y="10" width="21" height="12">
<path d="M0.145996 10.6667H20.5314V21.3333H0.145996V10.6667Z" fill="white"/>
</mask>
<g mask="url(#mask16_20_2184)">
<mask id="mask17_20_2184" style="mask-type:luminance" maskUnits="userSpaceOnUse" x="0" y="10" width="22" height="12">
<path d="M21.3333 10.6667H0V21.3333H21.3333V10.6667Z" fill="white"/>
</mask>
<g mask="url(#mask17_20_2184)">
<mask id="mask18_20_2184" style="mask-type:luminance" maskUnits="userSpaceOnUse" x="0" y="11" width="20" height="6">
<path d="M0.145996 11.651H19.7241V16.0625H0.145996V11.651Z" fill="white"/>
</mask>
<g mask="url(#mask18_20_2184)">
<mask id="mask19_20_2184" style="mask-type:luminance" maskUnits="userSpaceOnUse" x="0" y="10" width="20" height="8">
<path d="M20 10.6667H0V17.3333H20V10.6667Z" fill="white"/>
</mask>
<g mask="url(#mask19_20_2184)">
<mask id="mask20_20_2184" style="mask-type:luminance" maskUnits="userSpaceOnUse" x="0" y="11" width="20" height="6">
<path d="M0.145996 11.651H19.7241V16.0625H0.145996V11.651Z" fill="white"/>
</mask>
<g mask="url(#mask20_20_2184)">
<path d="M19.724 16.0625H0.140625V11.651H19.724V16.0625Z" fill="white"/>
</g>
</g>
</g>
<mask id="mask21_20_2184" style="mask-type:luminance" maskUnits="userSpaceOnUse" x="0" y="12" width="10" height="10">
<path d="M0.145996 12H9.3335V21.1198H0.145996V12Z" fill="white"/>
</mask>
<g mask="url(#mask21_20_2184)">
<mask id="mask22_20_2184" style="mask-type:luminance" maskUnits="userSpaceOnUse" x="0" y="13" width="10" height="8">
<path d="M7.02604 20.9896L0.140625 16.0625L2.16667 13.2292L9.05208 18.1563L7.02604 20.9896Z" fill="white"/>
</mask>
<g mask="url(#mask22_20_2184)">
<mask id="mask23_20_2184" style="mask-type:luminance" maskUnits="userSpaceOnUse" x="0" y="12" width="10" height="10">
<path d="M9.33333 12H0V21.3333H9.33333V12Z" fill="white"/>
</mask>
<g mask="url(#mask23_20_2184)">
<mask id="mask24_20_2184" style="mask-type:luminance" maskUnits="userSpaceOnUse" x="0" y="13" width="10" height="9">
<path d="M0.145996 13.0469H9.15641V21.1198H0.145996V13.0469Z" fill="white"/>
</mask>
<g mask="url(#mask24_20_2184)">
<mask id="mask25_20_2184" style="mask-type:luminance" maskUnits="userSpaceOnUse" x="0" y="13" width="10" height="8">
<path d="M7.02604 20.9896L0.140625 16.0625L2.16667 13.2292L9.05208 18.1563L7.02604 20.9896Z" fill="white"/>
</mask>
<g mask="url(#mask25_20_2184)">
<path d="M7.02604 20.9896L0.140625 16.0625L2.16667 13.2292L9.05208 18.1563L7.02604 20.9896Z" fill="white"/>
</g>
</g>
</g>
</g>
</g>
<mask id="mask26_20_2184" style="mask-type:luminance" maskUnits="userSpaceOnUse" x="7" y="12" width="4" height="9">
<path d="M7.02637 12.5729H10.5107V20.9896H7.02637V12.5729Z" fill="white"/>
</mask>
<g mask="url(#mask26_20_2184)">
<mask id="mask27_20_2184" style="mask-type:luminance" maskUnits="userSpaceOnUse" x="6" y="12" width="5" height="10">
<path d="M10.667 12H6.66699V21.3333H10.667V12Z" fill="white"/>
</mask>
<g mask="url(#mask27_20_2184)">
<mask id="mask28_20_2184" style="mask-type:luminance" maskUnits="userSpaceOnUse" x="7" y="12" width="4" height="9">
<path d="M7.02637 12.5729H10.5107V20.9896H7.02637V12.5729Z" fill="white"/>
</mask>
<g mask="url(#mask28_20_2184)">
<path d="M7.02637 20.9896V12.5781H10.5107V20.9896H7.02637Z" fill="white"/>
</g>
</g>
</g>
<mask id="mask29_20_2184" style="mask-type:luminance" maskUnits="userSpaceOnUse" x="6" y="14" width="5" height="5">
<path d="M6.09912 14.1094H10.5106V18.0156H6.09912V14.1094Z" fill="white"/>
</mask>
<g mask="url(#mask29_20_2184)">
<mask id="mask30_20_2184" style="mask-type:luminance" maskUnits="userSpaceOnUse" x="5" y="13" width="6" height="6">
<path d="M10.6668 13.3333H5.3335V18.6667H10.6668V13.3333Z" fill="white"/>
</mask>
<g mask="url(#mask30_20_2184)">
<mask id="mask31_20_2184" style="mask-type:luminance" maskUnits="userSpaceOnUse" x="6" y="14" width="5" height="5">
<path d="M6.09912 14.1094H10.5106V18.0156H6.09912V14.1094Z" fill="white"/>
</mask>
<g mask="url(#mask31_20_2184)">
<path d="M6.09912 18.0156V14.1094H10.5002V18.0156H6.09912Z" fill="white"/>
</g>
</g>
</g>
</g>
</g>
</svg>
